<?xml version="1.0" encoding="utf-8"?>
<!-- Generator: Adobe Illustrator 23.0.1, SVG Export Plug-In . SVG Version: 6.00 Build 0)  -->
<svg version="1.1" id="Layer_1" xmlns="http://www.w3.org/2000/svg" xmlns:xlink="http://www.w3.org/1999/xlink" x="0px" y="0px"
	 viewBox="0 0 256 256" style="enable-background:new 0 0 256 256;" xml:space="preserve">
<style type="text/css">
	.st0{fill-rule:evenodd;clip-rule:evenodd;}
</style>
<path class="st0" fill="#235A4F" d="M133.26,245.48V256h-10.52v-10.52H133.26z M177.85,198.39l-28.55,28.55l-12.02-12.02l33.57-21.54
	C172.84,194.88,175.34,196.38,177.85,198.39z M138.27,170.84c0,6.51-9.02,5.01-10.52,5.01c-3.01,0-10.02,1-10.02-5.01
	c0-7.02,7.01-5.01,10.02-5.01C132.26,165.82,138.27,164.32,138.27,170.84z M95.69,170.84c0,1-2.51,8.52-4.01,13.02l36.07,23.55
	l43.08-26.05c6.51,3.51,12.53,8.52,19.54,11.52c13.03,6.01,29.06,8.02,42.58,16.03c6.51,3.51,13.53,13.03,15.53,19.54
	c3.01,7.01,7.52,21.04,7.52,22.54c0,2.5-2.51,5.01-5.01,5.01c-1.5,0-4.01-0.5-4.51-2.01c-3.01-6.51-5.01-14.03-7.01-20.04
	c-1.5-4.51-5.51-12.02-11.02-15.53c-9.02-5.51-38.57-15.03-40.08-15.03c-1,0-23.55,23.55-35.57,35.07c-1,1-2.51,1.5-3.51,1.5
	c-3.51,0-23.05-21.04-24.05-22.04c-13.02-8.52-39.07-25.05-40.08-25.05c-1.5,0-5.01,3.51-7.51,5.51l29.06,29.05
	c3.51-3.51,7.01-8.52,10.52-8.52c4.01,0,5.01,3.51,5.01,5.01c0,4.51-8.52,10.52-12.02,14.53c-1,1-2.51,1.5-4.01,1.5
	c-1,0-2.01,0-2.51-1c-12.53-11.52-35.07-35.57-36.57-35.57c-1,0-23.55,7.52-34.57,12.02c-3.51,1-9.52,6.01-12.02,10.02
	c-6.01,8.01-7.51,19.04-11.02,27.55c-0.5,1.5-3.01,3.01-4.51,3.01c-3,0-5.01-2.51-5.01-5.01c0-1.5,4.01-15.53,7.01-22.54
	c12.02-29.06,39.08-25.55,58.62-35.57c4.51-2.51,10.02-5.01,14.03-9.02c4.01-4.51,3.51-11.02,6.51-16.03c1-2.01,3.01-2.51,4.51-2.51
	C94.18,165.32,95.69,168.83,95.69,170.84z M85.16,89.68v13.03c1,8.02,2.01,15.53,5.51,23.05c2.51,6.01,10.52,17.03,10.52,18.03
	c0,4.01-4.01,5.51-5.51,5.51c-6.01,0-15.03-20.04-15.03-20.54c-2.51-7.01-6.01-20.04-6.01-27.55V89.68c1-4.51,3.51-4.01,5.01-4.01
	C81.16,85.67,85.16,86.67,85.16,89.68z M52.6,80.16v31.56h-6.01c-1-0.5-3.51-2.01-3.51-3.01V83.16c0.5-1,2.01-2,3.51-3.01H52.6z
	 M111.22,46.09c1,3.01,1,7.01,3.01,10.52c2.01,3.51,8.52,7.52,12.02,7.52h31.56c17.77,1.37,23.55,17.53,23.55,30.06
	c0,15.53-2,30.56-12.02,45.59c-3.51,4.51-4.51,9.52-9.52,9.52c-4.01,0-5.01-4.01-5.01-5.51c0-3.51,5.01-8.52,6.51-11.02
	c3.01-5.01,5.51-12.02,7.01-17.53c1-4.01,2.01-8.01,2.51-12.02V87.17c0-3.01-5.71-12.93-13.03-12.53h-29.56
	c-6.51-1-15.53-2.51-21.54-11.02c-6.51,8.52-17.03,11.02-24.05,11.02c-3.01,0-8.02-0.5-8.02-5.51c0-1,0.5-5.01,3.51-5.01
	c5.51-1,14.03,1.5,20.04-7.01c1.5-2.01,3.51-6.51,3.01-8.02c-0.5-4.01,2.01-6.51,5.01-6.51C107.71,42.58,110.72,43.08,111.22,46.09z
	 M202.4,69.14c12.22-0.87,21.54,4.51,21.54,13.03v27.05c-1.5,10.02-14.53,15.03-21.54,13.53c-0.5,4.51-1.5,9.52-3.51,14.53
	c-3,8.02-10.02,19.54-19.54,26.55c-6.01,4.51-13.03,8.02-19.04,9.52c-3.51,1-8.01,1-11.52,2.51c-2.01,0.5-2.01,3.51-3.51,5.01
	c-1.5,2-4.01,3.51-6.51,4.51c-3.51,1-9.52,1.5-11.02,1.5c-9.52,0-21.04-3.01-21.04-16.03c0-15.03,12.53-16.03,21.04-16.03
	c8.02,0,13.03-1.5,21.04,10.52c21.54-1,42.08-24.05,42.58-40.08c0.5-1.5,0.5-3.01,1-4.51V94.19c0-1.5,3-3.51,5.01-3.51
	c3.01,0,5.51,3.51,5.51,5.51v16.03h6.01c2.01-1,3.51-2.01,4.51-3.51V82.66c-1-1-3.01-3.01-4.51-3.01h-13.02
	c-6.51-3.51-3.51-10.02-4.51-14.03c-1-5.01-2-10.52-4.01-15.03c-13.53-30.56-37.07-40.08-59.62-40.08
	c-23.55,0-49.6,12.02-61.12,44.09c-1.5,4.51-3.01,14.53-3.01,16.03v47.59c-1.5,5.01-7.02,4.39-10.52,4.51
	c-1.97,0.07-6.24-0.5-9.02-1c-5.76-1.04-12.02-8.02-12.02-12.02V82.16c1-10.02,14.03-15.03,21.54-13.03
	C58.61,22.54,93.68,0,127.75,0S196.88,22.54,202.4,69.14z"/>
</svg>
